<svg width="430" height="686" viewBox="0 0 430 686" fill="none" xmlns="http://www.w3.org/2000/svg">
<rect x="329.368" y="556.027" width="30.4712" height="153.137" rx="15.2356" transform="rotate(179.214 329.368 556.027)" fill="#3027D4"/>
<rect x="198.315" y="423.46" width="32.0338" height="164.076" rx="16.0169" transform="rotate(168.448 198.315 423.46)" fill="#3027D4"/>
<rect x="324.943" y="673.359" width="21.8768" height="111.728" rx="10.9384" transform="rotate(145.148 324.943 673.359)" fill="#3027D4"/>
<rect x="389.832" y="463.775" width="30.4712" height="153.137" rx="15.2356" transform="rotate(89.214 389.832 463.775)" fill="#3027D4"/>
<rect x="243.825" y="314.475" width="32.0338" height="164.076" rx="16.0169" transform="rotate(78.4484 243.825 314.475)" fill="#3027D4"/>
<rect x="324.179" y="592.963" width="21.8767" height="111.728" rx="10.9384" transform="rotate(55.1475 324.179 592.963)" fill="#3027D4"/>
<path d="M227.188 537.472C227.188 564.324 205.42 586.092 178.568 586.092C151.716 586.092 129.948 564.324 129.948 537.472C129.948 510.62 151.716 488.852 178.568 488.852C205.42 488.852 227.188 510.62 227.188 537.472ZM148.087 537.472C148.087 554.306 161.734 567.953 178.568 567.953C195.402 567.953 209.049 554.306 209.049 537.472C209.049 520.638 195.402 506.991 178.568 506.991C161.734 506.991 148.087 520.638 148.087 537.472Z" fill="#3027D4"/>
<path d="M429.624 299.676C429.624 343.127 394.399 378.352 350.948 378.352C307.496 378.352 272.272 343.127 272.272 299.676C272.272 256.224 307.496 221 350.948 221C394.399 221 429.624 256.224 429.624 299.676ZM301.624 299.676C301.624 326.917 323.707 349 350.948 349C378.189 349 400.272 326.917 400.272 299.676C400.272 272.435 378.189 250.352 350.948 250.352C323.707 250.352 301.624 272.435 301.624 299.676Z" fill="#3027D4"/>
<path d="M245.752 122.876C245.752 190.738 190.738 245.752 122.876 245.752C55.0134 245.752 0 190.738 0 122.876C0 55.0134 55.0134 0 122.876 0C190.738 0 245.752 55.0134 245.752 122.876ZM45.8418 122.876C45.8418 165.421 80.3312 199.91 122.876 199.91C165.421 199.91 199.91 165.421 199.91 122.876C199.91 80.3312 165.421 45.8418 122.876 45.8418C80.3312 45.8418 45.8418 80.3312 45.8418 122.876Z" fill="#3027D4"/>
</svg>
