<svg width="441" height="704" viewBox="0 0 441 704" fill="none" xmlns="http://www.w3.org/2000/svg">
<rect x="102.887" y="133.241" width="31.2709" height="157.156" rx="15.6354" transform="rotate(-0.785966 102.887 133.241)" fill="#13BEF4"/>
<rect x="237.379" y="269.287" width="32.8745" height="168.382" rx="16.4373" transform="rotate(-11.5516 237.379 269.287)" fill="#13BEF4"/>
<rect x="107.428" y="12.8299" width="22.4509" height="114.66" rx="11.2254" transform="rotate(-34.8525 107.428 12.8299)" fill="#13BEF4"/>
<rect x="40.8359" y="227.913" width="31.2709" height="157.156" rx="15.6354" transform="rotate(-90.786 40.8359 227.913)" fill="#13BEF4"/>
<rect x="190.675" y="381.132" width="32.8745" height="168.382" rx="16.4373" transform="rotate(-101.552 190.675 381.132)" fill="#13BEF4"/>
<rect x="108.213" y="95.3354" width="22.4509" height="114.66" rx="11.2254" transform="rotate(-124.852 108.213 95.3354)" fill="#13BEF4"/>
<path d="M207.749 152.283C207.749 124.726 230.088 102.387 257.645 102.387C285.202 102.387 307.541 124.726 307.541 152.283C307.541 179.84 285.202 202.179 257.645 202.179C230.088 202.179 207.749 179.84 207.749 152.283ZM288.926 152.283C288.926 135.007 274.921 121.002 257.645 121.002C240.369 121.002 226.364 135.007 226.364 152.283C226.364 169.559 240.369 183.564 257.645 183.564C274.921 183.564 288.926 169.559 288.926 152.283Z" fill="#13BEF4"/>
<path d="M0 396.32C0 351.728 36.1489 315.579 80.7408 315.579C125.333 315.579 161.482 351.728 161.482 396.32C161.482 440.912 125.333 477.06 80.7408 477.06C36.1489 477.06 0 440.912 0 396.32ZM131.359 396.32C131.359 368.364 108.697 345.701 80.7408 345.701C52.785 345.701 30.1223 368.364 30.1223 396.32C30.1223 424.275 52.785 446.938 80.7408 446.938C108.697 446.938 131.359 424.275 131.359 396.32Z" fill="#13BEF4"/>
<path d="M188.698 577.76C188.698 508.116 245.155 451.659 314.798 451.659C384.442 451.659 440.899 508.116 440.899 577.76C440.899 647.403 384.442 703.86 314.798 703.86C245.155 703.86 188.698 647.403 188.698 577.76ZM393.854 577.76C393.854 534.098 358.46 498.704 314.798 498.704C271.137 498.704 235.742 534.098 235.742 577.76C235.742 621.421 271.137 656.815 314.798 656.815C358.46 656.815 393.854 621.421 393.854 577.76Z" fill="#13BEF4"/>
</svg>
